solid pendulum
facet normal 0.098017 0.995185 0.000000
outer loop
vertex 0.000000 0.040000 -0.500000
vertex 0.000000 0.040000 -0.420000
vertex 0.007804 0.039231 -0.420000
endloop
endfacet
facet normal 0.098017 0.995185 0.000000
outer loop
vertex 0.000000 0.040000 -0.500000
vertex 0.007804 0.039231 -0.420000
vertex 0.007804 0.039231 -0.500000
endloop
endfacet
facet normal 0.290285 0.956940 0.000000
outer loop
vertex 0.007804 0.039231 -0.500000
vertex 0.007804 0.039231 -0.420000
vertex 0.015307 0.036955 -0.420000
endloop
endfacet
facet normal 0.290285 0.956940 0.000000
outer loop
vertex 0.007804 0.039231 -0.500000
vertex 0.015307 0.036955 -0.420000
vertex 0.015307 0.036955 -0.500000
endloop
endfacet
facet normal 0.471396 0.881922 0.000000
outer loop
vertex 0.015307 0.036955 -0.500000
vertex 0.015307 0.036955 -0.420000
vertex 0.022223 0.033259 -0.420000
endloop
endfacet
facet normal 0.471396 0.881921 0.000000
outer loop
vertex 0.015307 0.036955 -0.500000
vertex 0.022223 0.033259 -0.420000
vertex 0.022223 0.033259 -0.500000
endloop
endfacet
facet normal 0.634394 0.773010 0.000000
outer loop
vertex 0.022223 0.033259 -0.500000
vertex 0.022223 0.033259 -0.420000
vertex 0.028284 0.028284 -0.420000
endloop
endfacet
facet normal 0.634393 0.773010 0.000000
outer loop
vertex 0.022223 0.033259 -0.500000
vertex 0.028284 0.028284 -0.420000
vertex 0.028284 0.028284 -0.500000
endloop
endfacet
facet normal 0.773010 0.634393 0.000000
outer loop
vertex 0.028284 0.028284 -0.500000
vertex 0.028284 0.028284 -0.420000
vertex 0.033259 0.022223 -0.420000
endloop
endfacet
facet normal 0.773010 0.634394 0.000000
outer loop
vertex 0.028284 0.028284 -0.500000
vertex 0.033259 0.022223 -0.420000
vertex 0.033259 0.022223 -0.500000
endloop
endfacet
facet normal 0.881922 0.471396 0.000000
outer loop
vertex 0.033259 0.022223 -0.500000
vertex 0.033259 0.022223 -0.420000
vertex 0.036955 0.015307 -0.420000
endloop
endfacet
facet normal 0.881921 0.471397 0.000000
outer loop
vertex 0.033259 0.022223 -0.500000
vertex 0.036955 0.015307 -0.420000
vertex 0.036955 0.015307 -0.500000
endloop
endfacet
facet normal 0.956941 0.290284 0.000000
outer loop
vertex 0.036955 0.015307 -0.500000
vertex 0.036955 0.015307 -0.420000
vertex 0.039231 0.007804 -0.420000
endloop
endfacet
facet normal 0.956940 0.290285 0.000000
outer loop
vertex 0.036955 0.015307 -0.500000
vertex 0.039231 0.007804 -0.420000
vertex 0.039231 0.007804 -0.500000
endloop
endfacet
facet normal 0.995185 0.098018 0.000000
outer loop
vertex 0.039231 0.007804 -0.500000
vertex 0.039231 0.007804 -0.420000
vertex 0.040000 0.000000 -0.420000
endloop
endfacet
facet normal 0.995185 0.098017 0.000000
outer loop
vertex 0.039231 0.007804 -0.500000
vertex 0.040000 0.000000 -0.420000
vertex 0.040000 0.000000 -0.500000
endloop
endfacet
facet normal 0.995185 -0.098017 0.000000
outer loop
vertex 0.040000 0.000000 -0.500000
vertex 0.040000 0.000000 -0.420000
vertex 0.039231 -0.007804 -0.420000
endloop
endfacet
facet normal 0.995185 -0.098018 0.000000
outer loop
vertex 0.040000 0.000000 -0.500000
vertex 0.039231 -0.007804 -0.420000
vertex 0.039231 -0.007804 -0.500000
endloop
endfacet
facet normal 0.956940 -0.290285 0.000000
outer loop
vertex 0.039231 -0.007804 -0.500000
vertex 0.039231 -0.007804 -0.420000
vertex 0.036955 -0.015307 -0.420000
endloop
endfacet
facet normal 0.956941 -0.290284 0.000000
outer loop
vertex 0.039231 -0.007804 -0.500000
vertex 0.036955 -0.015307 -0.420000
vertex 0.036955 -0.015307 -0.500000
endloop
endfacet
facet normal 0.881921 -0.471397 0.000000
outer loop
vertex 0.036955 -0.015307 -0.500000
vertex 0.036955 -0.015307 -0.420000
vertex 0.033259 -0.022223 -0.420000
endloop
endfacet
facet normal 0.881921 -0.471396 0.000000
outer loop
vertex 0.036955 -0.015307 -0.500000
vertex 0.033259 -0.022223 -0.420000
vertex 0.033259 -0.022223 -0.500000
endloop
endfacet
facet normal 0.773010 -0.634393 0.000000
outer loop
vertex 0.033259 -0.022223 -0.500000
vertex 0.033259 -0.022223 -0.420000
vertex 0.028284 -0.028284 -0.420000
endloop
endfacet
facet normal 0.773010 -0.634394 0.000000
outer loop
vertex 0.033259 -0.022223 -0.500000
vertex 0.028284 -0.028284 -0.420000
vertex 0.028284 -0.028284 -0.500000
endloop
endfacet
facet normal 0.634393 -0.773010 0.000000
outer loop
vertex 0.028284 -0.028284 -0.500000
vertex 0.028284 -0.028284 -0.420000
vertex 0.022223 -0.033259 -0.420000
endloop
endfacet
facet normal 0.634394 -0.773010 0.000000
outer loop
vertex 0.028284 -0.028284 -0.500000
vertex 0.022223 -0.033259 -0.420000
vertex 0.022223 -0.033259 -0.500000
endloop
endfacet
facet normal 0.471396 -0.881922 0.000000
outer loop
vertex 0.022223 -0.033259 -0.500000
vertex 0.022223 -0.033259 -0.420000
vertex 0.015307 -0.036955 -0.420000
endloop
endfacet
facet normal 0.471397 -0.881921 0.000000
outer loop
vertex 0.022223 -0.033259 -0.500000
vertex 0.015307 -0.036955 -0.420000
vertex 0.015307 -0.036955 -0.500000
endloop
endfacet
facet normal 0.290285 -0.956940 0.000000
outer loop
vertex 0.015307 -0.036955 -0.500000
vertex 0.015307 -0.036955 -0.420000
vertex 0.007804 -0.039231 -0.420000
endloop
endfacet
facet normal 0.290285 -0.956940 0.000000
outer loop
vertex 0.015307 -0.036955 -0.500000
vertex 0.007804 -0.039231 -0.420000
vertex 0.007804 -0.039231 -0.500000
endloop
endfacet
facet normal 0.098017 -0.995185 0.000000
outer loop
vertex 0.007804 -0.039231 -0.500000
vertex 0.007804 -0.039231 -0.420000
vertex 0.000000 -0.040000 -0.420000
endloop
endfacet
facet normal 0.098017 -0.995185 0.000000
outer loop
vertex 0.007804 -0.039231 -0.500000
vertex 0.000000 -0.040000 -0.420000
vertex 0.000000 -0.040000 -0.500000
endloop
endfacet
facet normal -0.098017 -0.995185 0.000000
outer loop
vertex 0.000000 -0.040000 -0.500000
vertex 0.000000 -0.040000 -0.420000
vertex -0.007804 -0.039231 -0.420000
endloop
endfacet
facet normal -0.098017 -0.995185 0.000000
outer loop
vertex 0.000000 -0.040000 -0.500000
vertex -0.007804 -0.039231 -0.420000
vertex -0.007804 -0.039231 -0.500000
endloop
endfacet
facet normal -0.290285 -0.956940 0.000000
outer loop
vertex -0.007804 -0.039231 -0.500000
vertex -0.007804 -0.039231 -0.420000
vertex -0.015307 -0.036955 -0.420000
endloop
endfacet
facet normal -0.290285 -0.956940 0.000000
outer loop
vertex -0.007804 -0.039231 -0.500000
vertex -0.015307 -0.036955 -0.420000
vertex -0.015307 -0.036955 -0.500000
endloop
endfacet
facet normal -0.471396 -0.881922 0.000000
outer loop
vertex -0.015307 -0.036955 -0.500000
vertex -0.015307 -0.036955 -0.420000
vertex -0.022223 -0.033259 -0.420000
endloop
endfacet
facet normal -0.471396 -0.881921 0.000000
outer loop
vertex -0.015307 -0.036955 -0.500000
vertex -0.022223 -0.033259 -0.420000
vertex -0.022223 -0.033259 -0.500000
endloop
endfacet
facet normal -0.634394 -0.773010 0.000000
outer loop
vertex -0.022223 -0.033259 -0.500000
vertex -0.022223 -0.033259 -0.420000
vertex -0.028284 -0.028284 -0.420000
endloop
endfacet
facet normal -0.634393 -0.773010 0.000000
outer loop
vertex -0.022223 -0.033259 -0.500000
vertex -0.028284 -0.028284 -0.420000
vertex -0.028284 -0.028284 -0.500000
endloop
endfacet
facet normal -0.773010 -0.634393 0.000000
outer loop
vertex -0.028284 -0.028284 -0.500000
vertex -0.028284 -0.028284 -0.420000
vertex -0.033259 -0.022223 -0.420000
endloop
endfacet
facet normal -0.773010 -0.634394 0.000000
outer loop
vertex -0.028284 -0.028284 -0.500000
vertex -0.033259 -0.022223 -0.420000
vertex -0.033259 -0.022223 -0.500000
endloop
endfacet
facet normal -0.881922 -0.471396 0.000000
outer loop
vertex -0.033259 -0.022223 -0.500000
vertex -0.033259 -0.022223 -0.420000
vertex -0.036955 -0.015307 -0.420000
endloop
endfacet
facet normal -0.881921 -0.471397 0.000000
outer loop
vertex -0.033259 -0.022223 -0.500000
vertex -0.036955 -0.015307 -0.420000
vertex -0.036955 -0.015307 -0.500000
endloop
endfacet
facet normal -0.956941 -0.290284 0.000000
outer loop
vertex -0.036955 -0.015307 -0.500000
vertex -0.036955 -0.015307 -0.420000
vertex -0.039231 -0.007804 -0.420000
endloop
endfacet
facet normal -0.956940 -0.290285 0.000000
outer loop
vertex -0.036955 -0.015307 -0.500000
vertex -0.039231 -0.007804 -0.420000
vertex -0.039231 -0.007804 -0.500000
endloop
endfacet
facet normal -0.995185 -0.098018 0.000000
outer loop
vertex -0.039231 -0.007804 -0.500000
vertex -0.039231 -0.007804 -0.420000
vertex -0.040000 0.000000 -0.420000
endloop
endfacet
facet normal -0.995185 -0.098017 0.000000
outer loop
vertex -0.039231 -0.007804 -0.500000
vertex -0.040000 0.000000 -0.420000
vertex -0.040000 0.000000 -0.500000
endloop
endfacet
facet normal -0.995185 0.098017 0.000000
outer loop
vertex -0.040000 0.000000 -0.500000
vertex -0.040000 0.000000 -0.420000
vertex -0.039231 0.007804 -0.420000
endloop
endfacet
facet normal -0.995185 0.098018 0.000000
outer loop
vertex -0.040000 0.000000 -0.500000
vertex -0.039231 0.007804 -0.420000
vertex -0.039231 0.007804 -0.500000
endloop
endfacet
facet normal -0.956940 0.290285 0.000000
outer loop
vertex -0.039231 0.007804 -0.500000
vertex -0.039231 0.007804 -0.420000
vertex -0.036955 0.015307 -0.420000
endloop
endfacet
facet normal -0.956941 0.290284 0.000000
outer loop
vertex -0.039231 0.007804 -0.500000
vertex -0.036955 0.015307 -0.420000
vertex -0.036955 0.015307 -0.500000
endloop
endfacet
facet normal -0.881921 0.471397 0.000000
outer loop
vertex -0.036955 0.015307 -0.500000
vertex -0.036955 0.015307 -0.420000
vertex -0.033259 0.022223 -0.420000
endloop
endfacet
facet normal -0.881921 0.471396 0.000000
outer loop
vertex -0.036955 0.015307 -0.500000
vertex -0.033259 0.022223 -0.420000
vertex -0.033259 0.022223 -0.500000
endloop
endfacet
facet normal -0.773010 0.634393 0.000000
outer loop
vertex -0.033259 0.022223 -0.500000
vertex -0.033259 0.022223 -0.420000
vertex -0.028284 0.028284 -0.420000
endloop
endfacet
facet normal -0.773010 0.634394 0.000000
outer loop
vertex -0.033259 0.022223 -0.500000
vertex -0.028284 0.028284 -0.420000
vertex -0.028284 0.028284 -0.500000
endloop
endfacet
facet normal -0.634393 0.773010 0.000000
outer loop
vertex -0.028284 0.028284 -0.500000
vertex -0.028284 0.028284 -0.420000
vertex -0.022223 0.033259 -0.420000
endloop
endfacet
facet normal -0.634394 0.773010 0.000000
outer loop
vertex -0.028284 0.028284 -0.500000
vertex -0.022223 0.033259 -0.420000
vertex -0.022223 0.033259 -0.500000
endloop
endfacet
facet normal -0.471396 0.881922 0.000000
outer loop
vertex -0.022223 0.033259 -0.500000
vertex -0.022223 0.033259 -0.420000
vertex -0.015307 0.036955 -0.420000
endloop
endfacet
facet normal -0.471397 0.881921 0.000000
outer loop
vertex -0.022223 0.033259 -0.500000
vertex -0.015307 0.036955 -0.420000
vertex -0.015307 0.036955 -0.500000
endloop
endfacet
facet normal -0.000005 0.000000 1.000000
outer loop
vertex 0.015307 0.036955 -0.420000
vertex 0.007804 0.039231 -0.420000
vertex 0.000000 0.040000 -0.420000
endloop
endfacet
facet normal 0.000010 0.000000 1.000000
outer loop
vertex 0.000000 0.040000 -0.420000
vertex -0.007804 0.039231 -0.420000
vertex -0.015307 0.036955 -0.420000
endloop
endfacet
facet normal -0.000039 0.000000 1.000000
outer loop
vertex -0.015307 0.036955 -0.420000
vertex -0.022223 0.033259 -0.420000
vertex -0.028284 0.028284 -0.420000
endloop
endfacet
facet normal 0.000000 0.000000 1.000000
outer loop
vertex -0.028284 0.028284 -0.420000
vertex -0.033259 0.022223 -0.420000
vertex -0.036955 0.015307 -0.420000
endloop
endfacet
facet normal 0.000000 0.000000 1.000000
outer loop
vertex -0.036955 0.015307 -0.420000
vertex -0.039231 0.007804 -0.420000
vertex -0.040000 0.000000 -0.420000
endloop
endfacet
facet normal 0.000000 0.000000 1.000000
outer loop
vertex -0.040000 0.000000 -0.420000
vertex -0.039231 -0.007804 -0.420000
vertex -0.036955 -0.015307 -0.420000
endloop
endfacet
facet normal 0.000000 0.000000 1.000000
outer loop
vertex -0.036955 -0.015307 -0.420000
vertex -0.033259 -0.022223 -0.420000
vertex -0.028284 -0.028284 -0.420000
endloop
endfacet
facet normal -0.000019 0.000000 1.000000
outer loop
vertex -0.028284 -0.028284 -0.420000
vertex -0.022223 -0.033259 -0.420000
vertex -0.015307 -0.036955 -0.420000
endloop
endfacet
facet normal 0.000005 0.000000 1.000000
outer loop
vertex -0.015307 -0.036955 -0.420000
vertex -0.007804 -0.039231 -0.420000
vertex 0.000000 -0.040000 -0.420000
endloop
endfacet
facet normal -0.000010 0.000000 1.000000
outer loop
vertex 0.000000 -0.040000 -0.420000
vertex 0.007804 -0.039231 -0.420000
vertex 0.015307 -0.036955 -0.420000
endloop
endfacet
facet normal 0.000039 0.000000 1.000000
outer loop
vertex 0.015307 -0.036955 -0.420000
vertex 0.022223 -0.033259 -0.420000
vertex 0.028284 -0.028284 -0.420000
endloop
endfacet
facet normal 0.000000 0.000000 1.000000
outer loop
vertex 0.028284 -0.028284 -0.420000
vertex 0.033259 -0.022223 -0.420000
vertex 0.036955 -0.015307 -0.420000
endloop
endfacet
facet normal 0.000000 0.000000 1.000000
outer loop
vertex 0.036955 -0.015307 -0.420000
vertex 0.039231 -0.007804 -0.420000
vertex 0.040000 0.000000 -0.420000
endloop
endfacet
facet normal 0.000000 0.000000 1.000000
outer loop
vertex 0.040000 0.000000 -0.420000
vertex 0.039231 0.007804 -0.420000
vertex 0.036955 0.015307 -0.420000
endloop
endfacet
facet normal 0.000000 0.000000 1.000000
outer loop
vertex 0.036955 0.015307 -0.420000
vertex 0.033259 0.022223 -0.420000
vertex 0.028284 0.028284 -0.420000
endloop
endfacet
facet normal 0.000019 0.000000 1.000000
outer loop
vertex 0.028284 0.028284 -0.420000
vertex 0.022223 0.033259 -0.420000
vertex 0.015307 0.036955 -0.420000
endloop
endfacet
facet normal 0.000000 0.000000 1.000000
outer loop
vertex 0.015307 0.036955 -0.420000
vertex 0.000000 0.040000 -0.420000
vertex -0.015307 0.036955 -0.420000
endloop
endfacet
facet normal 0.000020 0.000000 1.000000
outer loop
vertex -0.015307 0.036955 -0.420000
vertex -0.028284 0.028284 -0.420000
vertex -0.036955 0.015307 -0.420000
endloop
endfacet
facet normal 0.000000 0.000000 1.000000
outer loop
vertex -0.036955 0.015307 -0.420000
vertex -0.040000 0.000000 -0.420000
vertex -0.036955 -0.015307 -0.420000
endloop
endfacet
facet normal 0.000015 0.000000 1.000000
outer loop
vertex -0.036955 -0.015307 -0.420000
vertex -0.028284 -0.028284 -0.420000
vertex -0.015307 -0.036955 -0.420000
endloop
endfacet
facet normal 0.000000 0.000000 1.000000
outer loop
vertex -0.015307 -0.036955 -0.420000
vertex 0.000000 -0.040000 -0.420000
vertex 0.015307 -0.036955 -0.420000
endloop
endfacet
facet normal -0.000020 0.000000 1.000000
outer loop
vertex 0.015307 -0.036955 -0.420000
vertex 0.028284 -0.028284 -0.420000
vertex 0.036955 -0.015307 -0.420000
endloop
endfacet
facet normal 0.000000 0.000000 1.000000
outer loop
vertex 0.036955 -0.015307 -0.420000
vertex 0.040000 0.000000 -0.420000
vertex 0.036955 0.015307 -0.420000
endloop
endfacet
facet normal -0.000015 0.000000 1.000000
outer loop
vertex 0.036955 0.015307 -0.420000
vertex 0.028284 0.028284 -0.420000
vertex 0.015307 0.036955 -0.420000
endloop
endfacet
facet normal 0.000000 0.000000 1.000000
outer loop
vertex 0.015307 0.036955 -0.420000
vertex -0.015307 0.036955 -0.420000
vertex -0.036955 0.015307 -0.420000
endloop
endfacet
facet normal -0.000003 0.000000 1.000000
outer loop
vertex -0.036955 0.015307 -0.420000
vertex -0.036955 -0.015307 -0.420000
vertex -0.015307 -0.036955 -0.420000
endloop
endfacet
facet normal 0.000000 0.000000 1.000000
outer loop
vertex -0.015307 -0.036955 -0.420000
vertex 0.015307 -0.036955 -0.420000
vertex 0.036955 -0.015307 -0.420000
endloop
endfacet
facet normal 0.000003 0.000000 1.000000
outer loop
vertex 0.036955 -0.015307 -0.420000
vertex 0.036955 0.015307 -0.420000
vertex 0.015307 0.036955 -0.420000
endloop
endfacet
facet normal 0.000000 0.000000 1.000000
outer loop
vertex 0.015307 0.036955 -0.420000
vertex -0.036955 0.015307 -0.420000
vertex -0.015307 -0.036955 -0.420000
endloop
endfacet
facet normal 0.000000 0.000000 1.000000
outer loop
vertex -0.015307 -0.036955 -0.420000
vertex 0.036955 -0.015307 -0.420000
vertex 0.015307 0.036955 -0.420000
endloop
endfacet
facet normal -0.290285 0.956940 0.000000
outer loop
vertex -0.015307 0.036955 -0.500000
vertex -0.015307 0.036955 -0.420000
vertex -0.007804 0.039231 -0.420000
endloop
endfacet
facet normal -0.290285 0.956940 0.000000
outer loop
vertex -0.015307 0.036955 -0.500000
vertex -0.007804 0.039231 -0.420000
vertex -0.007804 0.039231 -0.500000
endloop
endfacet
facet normal -0.098017 0.995185 0.000000
outer loop
vertex -0.007804 0.039231 -0.500000
vertex -0.007804 0.039231 -0.420000
vertex 0.000000 0.040000 -0.420000
endloop
endfacet
facet normal -0.098017 0.995185 0.000000
outer loop
vertex -0.007804 0.039231 -0.500000
vertex 0.000000 0.040000 -0.420000
vertex 0.000000 0.040000 -0.500000
endloop
endfacet
facet normal 0.000000 0.000000 -1.000000
outer loop
vertex -0.007804 0.039231 -0.500000
vertex 0.000000 0.040000 -0.500000
vertex 0.007804 0.039231 -0.500000
endloop
endfacet
facet normal -0.000019 0.000000 -1.000000
outer loop
vertex 0.007804 0.039231 -0.500000
vertex 0.015307 0.036955 -0.500000
vertex 0.022223 0.033259 -0.500000
endloop
endfacet
facet normal 0.000039 0.000000 -1.000000
outer loop
vertex 0.022223 0.033259 -0.500000
vertex 0.028284 0.028284 -0.500000
vertex 0.033259 0.022223 -0.500000
endloop
endfacet
facet normal -0.000039 0.000000 -1.000000
outer loop
vertex 0.033259 0.022223 -0.500000
vertex 0.036955 0.015307 -0.500000
vertex 0.039231 0.007804 -0.500000
endloop
endfacet
facet normal 0.000000 0.000000 -1.000000
outer loop
vertex 0.039231 0.007804 -0.500000
vertex 0.040000 0.000000 -0.500000
vertex 0.039231 -0.007804 -0.500000
endloop
endfacet
facet normal -0.000039 0.000000 -1.000000
outer loop
vertex 0.039231 -0.007804 -0.500000
vertex 0.036955 -0.015307 -0.500000
vertex 0.033259 -0.022223 -0.500000
endloop
endfacet
facet normal 0.000039 0.000000 -1.000000
outer loop
vertex 0.033259 -0.022223 -0.500000
vertex 0.028284 -0.028284 -0.500000
vertex 0.022223 -0.033259 -0.500000
endloop
endfacet
facet normal -0.000019 0.000000 -1.000000
outer loop
vertex 0.022223 -0.033259 -0.500000
vertex 0.015307 -0.036955 -0.500000
vertex 0.007804 -0.039231 -0.500000
endloop
endfacet
facet normal 0.000000 0.000000 -1.000000
outer loop
vertex 0.007804 -0.039231 -0.500000
vertex 0.000000 -0.040000 -0.500000
vertex -0.007804 -0.039231 -0.500000
endloop
endfacet
facet normal 0.000019 0.000000 -1.000000
outer loop
vertex -0.007804 -0.039231 -0.500000
vertex -0.015307 -0.036955 -0.500000
vertex -0.022223 -0.033259 -0.500000
endloop
endfacet
facet normal -0.000039 0.000000 -1.000000
outer loop
vertex -0.022223 -0.033259 -0.500000
vertex -0.028284 -0.028284 -0.500000
vertex -0.033259 -0.022223 -0.500000
endloop
endfacet
facet normal 0.000039 0.000000 -1.000000
outer loop
vertex -0.033259 -0.022223 -0.500000
vertex -0.036955 -0.015307 -0.500000
vertex -0.039231 -0.007804 -0.500000
endloop
endfacet
facet normal 0.000000 0.000000 -1.000000
outer loop
vertex -0.039231 -0.007804 -0.500000
vertex -0.040000 0.000000 -0.500000
vertex -0.039231 0.007804 -0.500000
endloop
endfacet
facet normal 0.000039 0.000000 -1.000000
outer loop
vertex -0.039231 0.007804 -0.500000
vertex -0.036955 0.015307 -0.500000
vertex -0.033259 0.022223 -0.500000
endloop
endfacet
facet normal -0.000039 0.000000 -1.000000
outer loop
vertex -0.033259 0.022223 -0.500000
vertex -0.028284 0.028284 -0.500000
vertex -0.022223 0.033259 -0.500000
endloop
endfacet
facet normal 0.000019 0.000000 -1.000000
outer loop
vertex -0.022223 0.033259 -0.500000
vertex -0.015307 0.036955 -0.500000
vertex -0.007804 0.039231 -0.500000
endloop
endfacet
facet normal 0.000000 0.000000 -1.000000
outer loop
vertex -0.007804 0.039231 -0.500000
vertex 0.007804 0.039231 -0.500000
vertex 0.022223 0.033259 -0.500000
endloop
endfacet
facet normal -0.000010 0.000000 -1.000000
outer loop
vertex 0.022223 0.033259 -0.500000
vertex 0.033259 0.022223 -0.500000
vertex 0.039231 0.007804 -0.500000
endloop
endfacet
facet normal 0.000010 0.000000 -1.000000
outer loop
vertex 0.039231 0.007804 -0.500000
vertex 0.039231 -0.007804 -0.500000
vertex 0.033259 -0.022223 -0.500000
endloop
endfacet
facet normal 0.000000 0.000000 -1.000000
outer loop
vertex 0.033259 -0.022223 -0.500000
vertex 0.022223 -0.033259 -0.500000
vertex 0.007804 -0.039231 -0.500000
endloop
endfacet
facet normal 0.000000 0.000000 -1.000000
outer loop
vertex 0.007804 -0.039231 -0.500000
vertex -0.007804 -0.039231 -0.500000
vertex -0.022223 -0.033259 -0.500000
endloop
endfacet
facet normal 0.000010 0.000000 -1.000000
outer loop
vertex -0.022223 -0.033259 -0.500000
vertex -0.033259 -0.022223 -0.500000
vertex -0.039231 -0.007804 -0.500000
endloop
endfacet
facet normal -0.000010 0.000000 -1.000000
outer loop
vertex -0.039231 -0.007804 -0.500000
vertex -0.039231 0.007804 -0.500000
vertex -0.033259 0.022223 -0.500000
endloop
endfacet
facet normal 0.000000 0.000000 -1.000000
outer loop
vertex -0.033259 0.022223 -0.500000
vertex -0.022223 0.033259 -0.500000
vertex -0.007804 0.039231 -0.500000
endloop
endfacet
facet normal 0.000003 0.000000 -1.000000
outer loop
vertex -0.007804 0.039231 -0.500000
vertex 0.022223 0.033259 -0.500000
vertex 0.039231 0.007804 -0.500000
endloop
endfacet
facet normal -0.000006 0.000000 -1.000000
outer loop
vertex 0.039231 0.007804 -0.500000
vertex 0.033259 -0.022223 -0.500000
vertex 0.007804 -0.039231 -0.500000
endloop
endfacet
facet normal -0.000003 0.000000 -1.000000
outer loop
vertex 0.007804 -0.039231 -0.500000
vertex -0.022223 -0.033259 -0.500000
vertex -0.039231 -0.007804 -0.500000
endloop
endfacet
facet normal 0.000006 0.000000 -1.000000
outer loop
vertex -0.039231 -0.007804 -0.500000
vertex -0.033259 0.022223 -0.500000
vertex -0.007804 0.039231 -0.500000
endloop
endfacet
facet normal 0.000001 0.000000 -1.000000
outer loop
vertex -0.007804 0.039231 -0.500000
vertex 0.039231 0.007804 -0.500000
vertex 0.007804 -0.039231 -0.500000
endloop
endfacet
facet normal -0.000001 0.000000 -1.000000
outer loop
vertex 0.007804 -0.039231 -0.500000
vertex -0.039231 -0.007804 -0.500000
vertex -0.007804 0.039231 -0.500000
endloop
endfacet
facet normal 0.098017 0.995185 0.000000
outer loop
vertex 0.000000 0.020000 -0.465000
vertex 0.000000 0.020000 -0.115000
vertex 0.003902 0.019616 -0.115000
endloop
endfacet
facet normal 0.098017 0.995185 0.000000
outer loop
vertex 0.000000 0.020000 -0.465000
vertex 0.003902 0.019616 -0.115000
vertex 0.003902 0.019616 -0.465000
endloop
endfacet
facet normal 0.290285 0.956940 0.000000
outer loop
vertex 0.003902 0.019616 -0.465000
vertex 0.003902 0.019616 -0.115000
vertex 0.007654 0.018478 -0.115000
endloop
endfacet
facet normal 0.290285 0.956940 0.000000
outer loop
vertex 0.003902 0.019616 -0.465000
vertex 0.007654 0.018478 -0.115000
vertex 0.007654 0.018478 -0.465000
endloop
endfacet
facet normal 0.471397 0.881921 0.000000
outer loop
vertex 0.007654 0.018478 -0.465000
vertex 0.007654 0.018478 -0.115000
vertex 0.011111 0.016629 -0.115000
endloop
endfacet
facet normal 0.471396 0.881921 0.000000
outer loop
vertex 0.007654 0.018478 -0.465000
vertex 0.011111 0.016629 -0.115000
vertex 0.011111 0.016629 -0.465000
endloop
endfacet
facet normal 0.634393 0.773010 0.000000
outer loop
vertex 0.011111 0.016629 -0.465000
vertex 0.011111 0.016629 -0.115000
vertex 0.014142 0.014142 -0.115000
endloop
endfacet
facet normal 0.634394 0.773010 0.000000
outer loop
vertex 0.011111 0.016629 -0.465000
vertex 0.014142 0.014142 -0.115000
vertex 0.014142 0.014142 -0.465000
endloop
endfacet
facet normal 0.773010 0.634393 0.000000
outer loop
vertex 0.014142 0.014142 -0.465000
vertex 0.014142 0.014142 -0.115000
vertex 0.016629 0.011111 -0.115000
endloop
endfacet
facet normal 0.773010 0.634394 0.000000
outer loop
vertex 0.014142 0.014142 -0.465000
vertex 0.016629 0.011111 -0.115000
vertex 0.016629 0.011111 -0.465000
endloop
endfacet
facet normal 0.881922 0.471396 0.000000
outer loop
vertex 0.016629 0.011111 -0.465000
vertex 0.016629 0.011111 -0.115000
vertex 0.018478 0.007654 -0.115000
endloop
endfacet
facet normal 0.881921 0.471397 0.000000
outer loop
vertex 0.016629 0.011111 -0.465000
vertex 0.018478 0.007654 -0.115000
vertex 0.018478 0.007654 -0.465000
endloop
endfacet
facet normal 0.956940 0.290284 0.000000
outer loop
vertex 0.018478 0.007654 -0.465000
vertex 0.018478 0.007654 -0.115000
vertex 0.019616 0.003902 -0.115000
endloop
endfacet
facet normal 0.956940 0.290285 0.000000
outer loop
vertex 0.018478 0.007654 -0.465000
vertex 0.019616 0.003902 -0.115000
vertex 0.019616 0.003902 -0.465000
endloop
endfacet
facet normal 0.995185 0.098017 0.000000
outer loop
vertex 0.019616 0.003902 -0.465000
vertex 0.019616 0.003902 -0.115000
vertex 0.020000 0.000000 -0.115000
endloop
endfacet
facet normal 0.995185 0.098017 0.000000
outer loop
vertex 0.019616 0.003902 -0.465000
vertex 0.020000 0.000000 -0.115000
vertex 0.020000 0.000000 -0.465000
endloop
endfacet
facet normal 0.995185 -0.098017 0.000000
outer loop
vertex 0.020000 0.000000 -0.465000
vertex 0.020000 0.000000 -0.115000
vertex 0.019616 -0.003902 -0.115000
endloop
endfacet
facet normal 0.995185 -0.098017 0.000000
outer loop
vertex 0.020000 0.000000 -0.465000
vertex 0.019616 -0.003902 -0.115000
vertex 0.019616 -0.003902 -0.465000
endloop
endfacet
facet normal 0.956940 -0.290285 0.000000
outer loop
vertex 0.019616 -0.003902 -0.465000
vertex 0.019616 -0.003902 -0.115000
vertex 0.018478 -0.007654 -0.115000
endloop
endfacet
facet normal 0.956940 -0.290284 0.000000
outer loop
vertex 0.019616 -0.003902 -0.465000
vertex 0.018478 -0.007654 -0.115000
vertex 0.018478 -0.007654 -0.465000
endloop
endfacet
facet normal 0.881921 -0.471397 0.000000
outer loop
vertex 0.018478 -0.007654 -0.465000
vertex 0.018478 -0.007654 -0.115000
vertex 0.016629 -0.011111 -0.115000
endloop
endfacet
facet normal 0.881922 -0.471396 0.000000
outer loop
vertex 0.018478 -0.007654 -0.465000
vertex 0.016629 -0.011111 -0.115000
vertex 0.016629 -0.011111 -0.465000
endloop
endfacet
facet normal 0.773010 -0.634394 0.000000
outer loop
vertex 0.016629 -0.011111 -0.465000
vertex 0.016629 -0.011111 -0.115000
vertex 0.014142 -0.014142 -0.115000
endloop
endfacet
facet normal 0.773010 -0.634393 0.000000
outer loop
vertex 0.016629 -0.011111 -0.465000
vertex 0.014142 -0.014142 -0.115000
vertex 0.014142 -0.014142 -0.465000
endloop
endfacet
facet normal 0.634394 -0.773010 0.000000
outer loop
vertex 0.014142 -0.014142 -0.465000
vertex 0.014142 -0.014142 -0.115000
vertex 0.011111 -0.016629 -0.115000
endloop
endfacet
facet normal 0.634393 -0.773010 0.000000
outer loop
vertex 0.014142 -0.014142 -0.465000
vertex 0.011111 -0.016629 -0.115000
vertex 0.011111 -0.016629 -0.465000
endloop
endfacet
facet normal 0.471396 -0.881921 0.000000
outer loop
vertex 0.011111 -0.016629 -0.465000
vertex 0.011111 -0.016629 -0.115000
vertex 0.007654 -0.018478 -0.115000
endloop
endfacet
facet normal 0.471396 -0.881921 0.000000
outer loop
vertex 0.011111 -0.016629 -0.465000
vertex 0.007654 -0.018478 -0.115000
vertex 0.007654 -0.018478 -0.465000
endloop
endfacet
facet normal 0.290285 -0.956940 0.000000
outer loop
vertex 0.007654 -0.018478 -0.465000
vertex 0.007654 -0.018478 -0.115000
vertex 0.003902 -0.019616 -0.115000
endloop
endfacet
facet normal 0.290285 -0.956940 0.000000
outer loop
vertex 0.007654 -0.018478 -0.465000
vertex 0.003902 -0.019616 -0.115000
vertex 0.003902 -0.019616 -0.465000
endloop
endfacet
facet normal 0.098017 -0.995185 0.000000
outer loop
vertex 0.003902 -0.019616 -0.465000
vertex 0.003902 -0.019616 -0.115000
vertex 0.000000 -0.020000 -0.115000
endloop
endfacet
facet normal 0.098017 -0.995185 0.000000
outer loop
vertex 0.003902 -0.019616 -0.465000
vertex 0.000000 -0.020000 -0.115000
vertex 0.000000 -0.020000 -0.465000
endloop
endfacet
facet normal -0.098017 -0.995185 0.000000
outer loop
vertex 0.000000 -0.020000 -0.465000
vertex 0.000000 -0.020000 -0.115000
vertex -0.003902 -0.019616 -0.115000
endloop
endfacet
facet normal -0.098017 -0.995185 0.000000
outer loop
vertex 0.000000 -0.020000 -0.465000
vertex -0.003902 -0.019616 -0.115000
vertex -0.003902 -0.019616 -0.465000
endloop
endfacet
facet normal -0.290285 -0.956940 0.000000
outer loop
vertex -0.003902 -0.019616 -0.465000
vertex -0.003902 -0.019616 -0.115000
vertex -0.007654 -0.018478 -0.115000
endloop
endfacet
facet normal -0.290285 -0.956940 0.000000
outer loop
vertex -0.003902 -0.019616 -0.465000
vertex -0.007654 -0.018478 -0.115000
vertex -0.007654 -0.018478 -0.465000
endloop
endfacet
facet normal -0.471397 -0.881921 0.000000
outer loop
vertex -0.007654 -0.018478 -0.465000
vertex -0.007654 -0.018478 -0.115000
vertex -0.011111 -0.016629 -0.115000
endloop
endfacet
facet normal -0.471396 -0.881921 0.000000
outer loop
vertex -0.007654 -0.018478 -0.465000
vertex -0.011111 -0.016629 -0.115000
vertex -0.011111 -0.016629 -0.465000
endloop
endfacet
facet normal -0.634393 -0.773010 0.000000
outer loop
vertex -0.011111 -0.016629 -0.465000
vertex -0.011111 -0.016629 -0.115000
vertex -0.014142 -0.014142 -0.115000
endloop
endfacet
facet normal -0.634394 -0.773010 0.000000
outer loop
vertex -0.011111 -0.016629 -0.465000
vertex -0.014142 -0.014142 -0.115000
vertex -0.014142 -0.014142 -0.465000
endloop
endfacet
facet normal -0.773010 -0.634393 0.000000
outer loop
vertex -0.014142 -0.014142 -0.465000
vertex -0.014142 -0.014142 -0.115000
vertex -0.016629 -0.011111 -0.115000
endloop
endfacet
facet normal -0.773010 -0.634394 0.000000
outer loop
vertex -0.014142 -0.014142 -0.465000
vertex -0.016629 -0.011111 -0.115000
vertex -0.016629 -0.011111 -0.465000
endloop
endfacet
facet normal -0.881922 -0.471396 0.000000
outer loop
vertex -0.016629 -0.011111 -0.465000
vertex -0.016629 -0.011111 -0.115000
vertex -0.018478 -0.007654 -0.115000
endloop
endfacet
facet normal -0.881921 -0.471397 0.000000
outer loop
vertex -0.016629 -0.011111 -0.465000
vertex -0.018478 -0.007654 -0.115000
vertex -0.018478 -0.007654 -0.465000
endloop
endfacet
facet normal -0.956940 -0.290284 0.000000
outer loop
vertex -0.018478 -0.007654 -0.465000
vertex -0.018478 -0.007654 -0.115000
vertex -0.019616 -0.003902 -0.115000
endloop
endfacet
facet normal -0.956940 -0.290285 0.000000
outer loop
vertex -0.018478 -0.007654 -0.465000
vertex -0.019616 -0.003902 -0.115000
vertex -0.019616 -0.003902 -0.465000
endloop
endfacet
facet normal -0.995185 -0.098017 0.000000
outer loop
vertex -0.019616 -0.003902 -0.465000
vertex -0.019616 -0.003902 -0.115000
vertex -0.020000 0.000000 -0.115000
endloop
endfacet
facet normal -0.995185 -0.098017 0.000000
outer loop
vertex -0.019616 -0.003902 -0.465000
vertex -0.020000 0.000000 -0.115000
vertex -0.020000 0.000000 -0.465000
endloop
endfacet
facet normal -0.995185 0.098017 0.000000
outer loop
vertex -0.020000 0.000000 -0.465000
vertex -0.020000 0.000000 -0.115000
vertex -0.019616 0.003902 -0.115000
endloop
endfacet
facet normal -0.995185 0.098017 0.000000
outer loop
vertex -0.020000 0.000000 -0.465000
vertex -0.019616 0.003902 -0.115000
vertex -0.019616 0.003902 -0.465000
endloop
endfacet
facet normal -0.956940 0.290285 0.000000
outer loop
vertex -0.019616 0.003902 -0.465000
vertex -0.019616 0.003902 -0.115000
vertex -0.018478 0.007654 -0.115000
endloop
endfacet
facet normal -0.956940 0.290284 0.000000
outer loop
vertex -0.019616 0.003902 -0.465000
vertex -0.018478 0.007654 -0.115000
vertex -0.018478 0.007654 -0.465000
endloop
endfacet
facet normal -0.881921 0.471397 0.000000
outer loop
vertex -0.018478 0.007654 -0.465000
vertex -0.018478 0.007654 -0.115000
vertex -0.016629 0.011111 -0.115000
endloop
endfacet
facet normal -0.881922 0.471396 0.000000
outer loop
vertex -0.018478 0.007654 -0.465000
vertex -0.016629 0.011111 -0.115000
vertex -0.016629 0.011111 -0.465000
endloop
endfacet
facet normal -0.773010 0.634394 0.000000
outer loop
vertex -0.016629 0.011111 -0.465000
vertex -0.016629 0.011111 -0.115000
vertex -0.014142 0.014142 -0.115000
endloop
endfacet
facet normal -0.773010 0.634393 0.000000
outer loop
vertex -0.016629 0.011111 -0.465000
vertex -0.014142 0.014142 -0.115000
vertex -0.014142 0.014142 -0.465000
endloop
endfacet
facet normal -0.634394 0.773010 0.000000
outer loop
vertex -0.014142 0.014142 -0.465000
vertex -0.014142 0.014142 -0.115000
vertex -0.011111 0.016629 -0.115000
endloop
endfacet
facet normal -0.634393 0.773010 0.000000
outer loop
vertex -0.014142 0.014142 -0.465000
vertex -0.011111 0.016629 -0.115000
vertex -0.011111 0.016629 -0.465000
endloop
endfacet
facet normal -0.471396 0.881921 0.000000
outer loop
vertex -0.011111 0.016629 -0.465000
vertex -0.011111 0.016629 -0.115000
vertex -0.007654 0.018478 -0.115000
endloop
endfacet
facet normal -0.471396 0.881921 0.000000
outer loop
vertex -0.011111 0.016629 -0.465000
vertex -0.007654 0.018478 -0.115000
vertex -0.007654 0.018478 -0.465000
endloop
endfacet
facet normal 0.000005 0.000000 1.000000
outer loop
vertex 0.007654 0.018478 -0.115000
vertex 0.003902 0.019616 -0.115000
vertex 0.000000 0.020000 -0.115000
endloop
endfacet
facet normal 0.000000 0.000000 1.000000
outer loop
vertex 0.000000 0.020000 -0.115000
vertex -0.003902 0.019616 -0.115000
vertex -0.007654 0.018478 -0.115000
endloop
endfacet
facet normal -0.000019 0.000000 1.000000
outer loop
vertex -0.007654 0.018478 -0.115000
vertex -0.011111 0.016629 -0.115000
vertex -0.014142 0.014142 -0.115000
endloop
endfacet
facet normal 0.000000 0.000000 1.000000
outer loop
vertex -0.014142 0.014142 -0.115000
vertex -0.016629 0.011111 -0.115000
vertex -0.018478 0.007654 -0.115000
endloop
endfacet
facet normal 0.000000 0.000000 1.000000
outer loop
vertex -0.018478 0.007654 -0.115000
vertex -0.019616 0.003902 -0.115000
vertex -0.020000 0.000000 -0.115000
endloop
endfacet
facet normal 0.000000 0.000000 1.000000
outer loop
vertex -0.020000 0.000000 -0.115000
vertex -0.019616 -0.003902 -0.115000
vertex -0.018478 -0.007654 -0.115000
endloop
endfacet
facet normal 0.000000 0.000000 1.000000
outer loop
vertex -0.018478 -0.007654 -0.115000
vertex -0.016629 -0.011111 -0.115000
vertex -0.014142 -0.014142 -0.115000
endloop
endfacet
facet normal -0.000019 0.000000 1.000000
outer loop
vertex -0.014142 -0.014142 -0.115000
vertex -0.011111 -0.016629 -0.115000
vertex -0.007654 -0.018478 -0.115000
endloop
endfacet
facet normal -0.000005 0.000000 1.000000
outer loop
vertex -0.007654 -0.018478 -0.115000
vertex -0.003902 -0.019616 -0.115000
vertex 0.000000 -0.020000 -0.115000
endloop
endfacet
facet normal 0.000000 0.000000 1.000000
outer loop
vertex 0.000000 -0.020000 -0.115000
vertex 0.003902 -0.019616 -0.115000
vertex 0.007654 -0.018478 -0.115000
endloop
endfacet
facet normal 0.000019 0.000000 1.000000
outer loop
vertex 0.007654 -0.018478 -0.115000
vertex 0.011111 -0.016629 -0.115000
vertex 0.014142 -0.014142 -0.115000
endloop
endfacet
facet normal 0.000000 0.000000 1.000000
outer loop
vertex 0.014142 -0.014142 -0.115000
vertex 0.016629 -0.011111 -0.115000
vertex 0.018478 -0.007654 -0.115000
endloop
endfacet
facet normal 0.000000 0.000000 1.000000
outer loop
vertex 0.018478 -0.007654 -0.115000
vertex 0.019616 -0.003902 -0.115000
vertex 0.020000 0.000000 -0.115000
endloop
endfacet
facet normal 0.000000 0.000000 1.000000
outer loop
vertex 0.020000 0.000000 -0.115000
vertex 0.019616 0.003902 -0.115000
vertex 0.018478 0.007654 -0.115000
endloop
endfacet
facet normal 0.000000 0.000000 1.000000
outer loop
vertex 0.018478 0.007654 -0.115000
vertex 0.016629 0.011111 -0.115000
vertex 0.014142 0.014142 -0.115000
endloop
endfacet
facet normal 0.000019 0.000000 1.000000
outer loop
vertex 0.014142 0.014142 -0.115000
vertex 0.011111 0.016629 -0.115000
vertex 0.007654 0.018478 -0.115000
endloop
endfacet
facet normal 0.000000 0.000000 1.000000
outer loop
vertex 0.007654 0.018478 -0.115000
vertex 0.000000 0.020000 -0.115000
vertex -0.007654 0.018478 -0.115000
endloop
endfacet
facet normal 0.000005 0.000000 1.000000
outer loop
vertex -0.007654 0.018478 -0.115000
vertex -0.014142 0.014142 -0.115000
vertex -0.018478 0.007654 -0.115000
endloop
endfacet
facet normal 0.000000 0.000000 1.000000
outer loop
vertex -0.018478 0.007654 -0.115000
vertex -0.020000 0.000000 -0.115000
vertex -0.018478 -0.007654 -0.115000
endloop
endfacet
facet normal 0.000005 0.000000 1.000000
outer loop
vertex -0.018478 -0.007654 -0.115000
vertex -0.014142 -0.014142 -0.115000
vertex -0.007654 -0.018478 -0.115000
endloop
endfacet
facet normal 0.000000 0.000000 1.000000
outer loop
vertex -0.007654 -0.018478 -0.115000
vertex 0.000000 -0.020000 -0.115000
vertex 0.007654 -0.018478 -0.115000
endloop
endfacet
facet normal -0.000005 0.000000 1.000000
outer loop
vertex 0.007654 -0.018478 -0.115000
vertex 0.014142 -0.014142 -0.115000
vertex 0.018478 -0.007654 -0.115000
endloop
endfacet
facet normal 0.000000 0.000000 1.000000
outer loop
vertex 0.018478 -0.007654 -0.115000
vertex 0.020000 0.000000 -0.115000
vertex 0.018478 0.007654 -0.115000
endloop
endfacet
facet normal -0.000005 0.000000 1.000000
outer loop
vertex 0.018478 0.007654 -0.115000
vertex 0.014142 0.014142 -0.115000
vertex 0.007654 0.018478 -0.115000
endloop
endfacet
facet normal 0.000000 0.000000 1.000000
outer loop
vertex 0.007654 0.018478 -0.115000
vertex -0.007654 0.018478 -0.115000
vertex -0.018478 0.007654 -0.115000
endloop
endfacet
facet normal -0.000001 0.000000 1.000000
outer loop
vertex -0.018478 0.007654 -0.115000
vertex -0.018478 -0.007654 -0.115000
vertex -0.007654 -0.018478 -0.115000
endloop
endfacet
facet normal 0.000000 0.000000 1.000000
outer loop
vertex -0.007654 -0.018478 -0.115000
vertex 0.007654 -0.018478 -0.115000
vertex 0.018478 -0.007654 -0.115000
endloop
endfacet
facet normal 0.000001 0.000000 1.000000
outer loop
vertex 0.018478 -0.007654 -0.115000
vertex 0.018478 0.007654 -0.115000
vertex 0.007654 0.018478 -0.115000
endloop
endfacet
facet normal 0.000000 0.000000 1.000000
outer loop
vertex 0.007654 0.018478 -0.115000
vertex -0.018478 0.007654 -0.115000
vertex -0.007654 -0.018478 -0.115000
endloop
endfacet
facet normal 0.000000 0.000000 1.000000
outer loop
vertex -0.007654 -0.018478 -0.115000
vertex 0.018478 -0.007654 -0.115000
vertex 0.007654 0.018478 -0.115000
endloop
endfacet
facet normal -0.290285 0.956940 0.000000
outer loop
vertex -0.007654 0.018478 -0.465000
vertex -0.007654 0.018478 -0.115000
vertex -0.003902 0.019616 -0.115000
endloop
endfacet
facet normal -0.290285 0.956940 0.000000
outer loop
vertex -0.007654 0.018478 -0.465000
vertex -0.003902 0.019616 -0.115000
vertex -0.003902 0.019616 -0.465000
endloop
endfacet
facet normal -0.098017 0.995185 0.000000
outer loop
vertex -0.003902 0.019616 -0.465000
vertex -0.003902 0.019616 -0.115000
vertex 0.000000 0.020000 -0.115000
endloop
endfacet
facet normal -0.098017 0.995185 0.000000
outer loop
vertex -0.003902 0.019616 -0.465000
vertex 0.000000 0.020000 -0.115000
vertex 0.000000 0.020000 -0.465000
endloop
endfacet
facet normal 0.000000 0.000000 -1.000000
outer loop
vertex -0.003902 0.019616 -0.465000
vertex 0.000000 0.020000 -0.465000
vertex 0.003902 0.019616 -0.465000
endloop
endfacet
facet normal -0.000039 0.000000 -1.000000
outer loop
vertex 0.003902 0.019616 -0.465000
vertex 0.007654 0.018478 -0.465000
vertex 0.011111 0.016629 -0.465000
endloop
endfacet
facet normal 0.000000 0.000000 -1.000000
outer loop
vertex 0.011111 0.016629 -0.465000
vertex 0.014142 0.014142 -0.465000
vertex 0.016629 0.011111 -0.465000
endloop
endfacet
facet normal 0.000000 0.000000 -1.000000
outer loop
vertex 0.016629 0.011111 -0.465000
vertex 0.018478 0.007654 -0.465000
vertex 0.019616 0.003902 -0.465000
endloop
endfacet
facet normal 0.000000 0.000000 -1.000000
outer loop
vertex 0.019616 0.003902 -0.465000
vertex 0.020000 0.000000 -0.465000
vertex 0.019616 -0.003902 -0.465000
endloop
endfacet
facet normal 0.000000 0.000000 -1.000000
outer loop
vertex 0.019616 -0.003902 -0.465000
vertex 0.018478 -0.007654 -0.465000
vertex 0.016629 -0.011111 -0.465000
endloop
endfacet
facet normal 0.000000 0.000000 -1.000000
outer loop
vertex 0.016629 -0.011111 -0.465000
vertex 0.014142 -0.014142 -0.465000
vertex 0.011111 -0.016629 -0.465000
endloop
endfacet
facet normal -0.000039 0.000000 -1.000000
outer loop
vertex 0.011111 -0.016629 -0.465000
vertex 0.007654 -0.018478 -0.465000
vertex 0.003902 -0.019616 -0.465000
endloop
endfacet
facet normal 0.000000 0.000000 -1.000000
outer loop
vertex 0.003902 -0.019616 -0.465000
vertex 0.000000 -0.020000 -0.465000
vertex -0.003902 -0.019616 -0.465000
endloop
endfacet
facet normal 0.000039 0.000000 -1.000000
outer loop
vertex -0.003902 -0.019616 -0.465000
vertex -0.007654 -0.018478 -0.465000
vertex -0.011111 -0.016629 -0.465000
endloop
endfacet
facet normal 0.000000 0.000000 -1.000000
outer loop
vertex -0.011111 -0.016629 -0.465000
vertex -0.014142 -0.014142 -0.465000
vertex -0.016629 -0.011111 -0.465000
endloop
endfacet
facet normal 0.000000 0.000000 -1.000000
outer loop
vertex -0.016629 -0.011111 -0.465000
vertex -0.018478 -0.007654 -0.465000
vertex -0.019616 -0.003902 -0.465000
endloop
endfacet
facet normal 0.000000 0.000000 -1.000000
outer loop
vertex -0.019616 -0.003902 -0.465000
vertex -0.020000 0.000000 -0.465000
vertex -0.019616 0.003902 -0.465000
endloop
endfacet
facet normal 0.000000 0.000000 -1.000000
outer loop
vertex -0.019616 0.003902 -0.465000
vertex -0.018478 0.007654 -0.465000
vertex -0.016629 0.011111 -0.465000
endloop
endfacet
facet normal 0.000000 0.000000 -1.000000
outer loop
vertex -0.016629 0.011111 -0.465000
vertex -0.014142 0.014142 -0.465000
vertex -0.011111 0.016629 -0.465000
endloop
endfacet
facet normal 0.000039 0.000000 -1.000000
outer loop
vertex -0.011111 0.016629 -0.465000
vertex -0.007654 0.018478 -0.465000
vertex -0.003902 0.019616 -0.465000
endloop
endfacet
facet normal 0.000000 0.000000 -1.000000
outer loop
vertex -0.003902 0.019616 -0.465000
vertex 0.003902 0.019616 -0.465000
vertex 0.011111 0.016629 -0.465000
endloop
endfacet
facet normal -0.000020 0.000000 -1.000000
outer loop
vertex 0.011111 0.016629 -0.465000
vertex 0.016629 0.011111 -0.465000
vertex 0.019616 0.003902 -0.465000
endloop
endfacet
facet normal 0.000000 0.000000 -1.000000
outer loop
vertex 0.019616 0.003902 -0.465000
vertex 0.019616 -0.003902 -0.465000
vertex 0.016629 -0.011111 -0.465000
endloop
endfacet
facet normal 0.000010 0.000000 -1.000000
outer loop
vertex 0.016629 -0.011111 -0.465000
vertex 0.011111 -0.016629 -0.465000
vertex 0.003902 -0.019616 -0.465000
endloop
endfacet
facet normal 0.000000 0.000000 -1.000000
outer loop
vertex 0.003902 -0.019616 -0.465000
vertex -0.003902 -0.019616 -0.465000
vertex -0.011111 -0.016629 -0.465000
endloop
endfacet
facet normal 0.000020 0.000000 -1.000000
outer loop
vertex -0.011111 -0.016629 -0.465000
vertex -0.016629 -0.011111 -0.465000
vertex -0.019616 -0.003902 -0.465000
endloop
endfacet
facet normal 0.000000 0.000000 -1.000000
outer loop
vertex -0.019616 -0.003902 -0.465000
vertex -0.019616 0.003902 -0.465000
vertex -0.016629 0.011111 -0.465000
endloop
endfacet
facet normal -0.000010 0.000000 -1.000000
outer loop
vertex -0.016629 0.011111 -0.465000
vertex -0.011111 0.016629 -0.465000
vertex -0.003902 0.019616 -0.465000
endloop
endfacet
facet normal 0.000006 0.000000 -1.000000
outer loop
vertex -0.003902 0.019616 -0.465000
vertex 0.011111 0.016629 -0.465000
vertex 0.019616 0.003902 -0.465000
endloop
endfacet
facet normal 0.000000 0.000000 -1.000000
outer loop
vertex 0.019616 0.003902 -0.465000
vertex 0.016629 -0.011111 -0.465000
vertex 0.003902 -0.019616 -0.465000
endloop
endfacet
facet normal -0.000006 0.000000 -1.000000
outer loop
vertex 0.003902 -0.019616 -0.465000
vertex -0.011111 -0.016629 -0.465000
vertex -0.019616 -0.003902 -0.465000
endloop
endfacet
facet normal 0.000000 0.000000 -1.000000
outer loop
vertex -0.019616 -0.003902 -0.465000
vertex -0.016629 0.011111 -0.465000
vertex -0.003902 0.019616 -0.465000
endloop
endfacet
facet normal -0.000002 0.000000 -1.000000
outer loop
vertex -0.003902 0.019616 -0.465000
vertex 0.019616 0.003902 -0.465000
vertex 0.003902 -0.019616 -0.465000
endloop
endfacet
facet normal 0.000002 0.000000 -1.000000
outer loop
vertex 0.003902 -0.019616 -0.465000
vertex -0.019616 -0.003902 -0.465000
vertex -0.003902 0.019616 -0.465000
endloop
endfacet
endsolid Exported from Blender-3.6.1
